# xmcd
#
# Track frame offsets:
#	200
#	12945
#	27337
#	39847
#	53740
#	66425
#	82905
#	96520
#
# Disc length: 1456 seconds
#
# Revision: 1
# Processed by: cddbd v1.4PL0 Copyright (c) Steve Scherf et al.
# Submitted via: audiograbber 1.81.03
#
DISCID=5d05ae08
DTITLE=Rare Blend Collection - Rare Blend Collection
DYEAR=1996
DGENRE=Country
TTITLE0=Jamie Mitchell - Find Yourself Another Fool
TTITLE1=Jamie Mitchell - What Do I Tell My Heart
TTITLE2=Jamie Mitchell - Tell the Truth, Then Set Me Free
TTITLE3=Arlene A. Warren - Promises
TTITLE4=Arlene A. Warren - One Foot Out, One Foot In
TTITLE5=Paul Lewis Dottley - Then Came You
TTITLE6=Paul Lewis Dottley - Tenn. Watch Over Her
TTITLE7=Paul Lewis Dottley - When I Think Of You
EXTD=
EXTT0=
EXTT1=
EXTT2=
EXTT3=
EXTT4=
EXTT5=
EXTT6=
EXTT7=
PLAYORDER=
